<svg xmlns="http://www.w3.org/2000/svg" viewBox="0 0 960 560" width="960" height="560" role="img" aria-labelledby="t d">
<title id="t">Who Hephaestus trusts and who it does not</title>
<desc id="d">Trusted: you, the operator, and the daemon, the only writer, with the Ledger and the stored files. Untrusted: agents being tested and everything they produce, repositories, tool results, model output, and remote workers. Isolated: the judge and the sealed tasks. Every stored file is checked against its fingerprint on every read.</desc>
<rect width="960" height="560" rx="18" fill="#10131a"/>
<rect x="1" y="1" width="958" height="558" rx="17" fill="none" stroke="#3a3f4d"/>
<text x="40.0" y="60.0" text-anchor="start" font-family="ui-sans-serif, -apple-system, BlinkMacSystemFont, 'Segoe UI', Helvetica, Arial, sans-serif" font-size="27" font-weight="700" fill="#e9e4d8">Who is trusted, and who is not</text>
<text x="40.0" y="90.0" text-anchor="start" font-family="ui-sans-serif, -apple-system, BlinkMacSystemFont, 'Segoe UI', Helvetica, Arial, sans-serif" font-size="16" font-weight="400" fill="#a2a7b5">Agents are assumed to be hostile. The judge is assumed to leak if it can.</text>
<rect x="40.0" y="116.0" width="280.0" height="400.0" rx="12" fill="#181c26" stroke="#f4c542" stroke-width="2"/>
<text x="60.0" y="150.0" text-anchor="start" font-family="ui-sans-serif, -apple-system, BlinkMacSystemFont, 'Segoe UI', Helvetica, Arial, sans-serif" font-size="19" font-weight="700" fill="#f4c542">Trusted</text>
<rect x="56.0" y="172.0" width="248.0" height="98.0" rx="12" fill="#1e2330" stroke="#3a3f4d" stroke-width="1"/>
<g transform="translate(70.00 186.00) scale(3.0000)" shape-rendering="crispEdges"><rect x="5" y="0" width="1.02" height="1.02" fill="#ff8a3d"/><rect x="4" y="1" width="1.02" height="1.02" fill="#ff8a3d"/><rect x="5" y="1" width="1.02" height="1.02" fill="#f4c542"/><rect x="6" y="1" width="1.02" height="1.02" fill="#ff8a3d"/><rect x="4" y="2" width="1.02" height="1.02" fill="#ff8a3d"/><rect x="5" y="2" width="1.02" height="1.02" fill="#f4c542"/><rect x="6" y="2" width="1.02" height="1.02" fill="#ff8a3d"/><rect x="5" y="3" width="1.02" height="1.02" fill="#e8590c"/><rect x="5" y="4" width="1.02" height="1.02" fill="#8a6a3a"/><rect x="5" y="5" width="1.02" height="1.02" fill="#8a6a3a"/><rect x="5" y="6" width="1.02" height="1.02" fill="#8a6a3a"/><rect x="4" y="7" width="1.02" height="1.02" fill="#e9e4d8"/><rect x="5" y="7" width="1.02" height="1.02" fill="#8a6a3a"/><rect x="6" y="7" width="1.02" height="1.02" fill="#e9e4d8"/><rect x="4" y="8" width="1.02" height="1.02" fill="#e9e4d8"/><rect x="5" y="8" width="1.02" height="1.02" fill="#e9e4d8"/><rect x="6" y="8" width="1.02" height="1.02" fill="#e9e4d8"/><rect x="5" y="9" width="1.02" height="1.02" fill="#8a6a3a"/><rect x="5" y="10" width="1.02" height="1.02" fill="#8a6a3a"/></g>
<text x="118.0" y="208.0" text-anchor="start" font-family="ui-sans-serif, -apple-system, BlinkMacSystemFont, 'Segoe UI', Helvetica, Arial, sans-serif" font-size="15" font-weight="700" fill="#e9e4d8">You, the operator</text>
<text x="72.0" y="242.0" text-anchor="start" font-family="ui-sans-serif, -apple-system, BlinkMacSystemFont, 'Segoe UI', Helvetica, Arial, sans-serif" font-size="13" font-weight="400" fill="#a2a7b5">Only you can unfreeze, promote,</text>
<text x="72.0" y="260.9" text-anchor="start" font-family="ui-sans-serif, -apple-system, BlinkMacSystemFont, 'Segoe UI', Helvetica, Arial, sans-serif" font-size="13" font-weight="400" fill="#a2a7b5">or kill.</text>
<rect x="56.0" y="284.0" width="248.0" height="98.0" rx="12" fill="#1e2330" stroke="#3a3f4d" stroke-width="1"/>
<g transform="translate(70.00 298.00) scale(3.0000)" shape-rendering="crispEdges"><rect x="0" y="2" width="1.02" height="1.02" fill="#5b6270"/><rect x="1" y="2" width="1.02" height="1.02" fill="#5b6270"/><rect x="2" y="2" width="1.02" height="1.02" fill="#5b6270"/><rect x="3" y="2" width="1.02" height="1.02" fill="#5b6270"/><rect x="4" y="2" width="1.02" height="1.02" fill="#5b6270"/><rect x="5" y="2" width="1.02" height="1.02" fill="#5b6270"/><rect x="6" y="2" width="1.02" height="1.02" fill="#5b6270"/><rect x="7" y="2" width="1.02" height="1.02" fill="#5b6270"/><rect x="8" y="2" width="1.02" height="1.02" fill="#5b6270"/><rect x="9" y="2" width="1.02" height="1.02" fill="#5b6270"/><rect x="1" y="3" width="1.02" height="1.02" fill="#5b6270"/><rect x="2" y="3" width="1.02" height="1.02" fill="#a2a7b5"/><rect x="3" y="3" width="1.02" height="1.02" fill="#a2a7b5"/><rect x="4" y="3" width="1.02" height="1.02" fill="#a2a7b5"/><rect x="5" y="3" width="1.02" height="1.02" fill="#a2a7b5"/><rect x="6" y="3" width="1.02" height="1.02" fill="#a2a7b5"/><rect x="7" y="3" width="1.02" height="1.02" fill="#a2a7b5"/><rect x="8" y="3" width="1.02" height="1.02" fill="#a2a7b5"/><rect x="9" y="3" width="1.02" height="1.02" fill="#5b6270"/><rect x="10" y="3" width="1.02" height="1.02" fill="#5b6270"/><rect x="11" y="3" width="1.02" height="1.02" fill="#5b6270"/><rect x="2" y="4" width="1.02" height="1.02" fill="#5b6270"/><rect x="3" y="4" width="1.02" height="1.02" fill="#5b6270"/><rect x="4" y="4" width="1.02" height="1.02" fill="#5b6270"/><rect x="5" y="4" width="1.02" height="1.02" fill="#5b6270"/><rect x="6" y="4" width="1.02" height="1.02" fill="#5b6270"/><rect x="7" y="4" width="1.02" height="1.02" fill="#5b6270"/><rect x="8" y="4" width="1.02" height="1.02" fill="#5b6270"/><rect x="9" y="4" width="1.02" height="1.02" fill="#5b6270"/><rect x="4" y="5" width="1.02" height="1.02" fill="#5b6270"/><rect x="5" y="5" width="1.02" height="1.02" fill="#5b6270"/><rect x="6" y="5" width="1.02" height="1.02" fill="#5b6270"/><rect x="7" y="5" width="1.02" height="1.02" fill="#5b6270"/><rect x="4" y="6" width="1.02" height="1.02" fill="#5b6270"/><rect x="5" y="6" width="1.02" height="1.02" fill="#5b6270"/><rect x="6" y="6" width="1.02" height="1.02" fill="#5b6270"/><rect x="7" y="6" width="1.02" height="1.02" fill="#5b6270"/><rect x="3" y="7" width="1.02" height="1.02" fill="#5b6270"/><rect x="4" y="7" width="1.02" height="1.02" fill="#5b6270"/><rect x="5" y="7" width="1.02" height="1.02" fill="#5b6270"/><rect x="6" y="7" width="1.02" height="1.02" fill="#5b6270"/><rect x="7" y="7" width="1.02" height="1.02" fill="#5b6270"/><rect x="8" y="7" width="1.02" height="1.02" fill="#5b6270"/><rect x="2" y="8" width="1.02" height="1.02" fill="#5b6270"/><rect x="3" y="8" width="1.02" height="1.02" fill="#5b6270"/><rect x="4" y="8" width="1.02" height="1.02" fill="#5b6270"/><rect x="5" y="8" width="1.02" height="1.02" fill="#5b6270"/><rect x="6" y="8" width="1.02" height="1.02" fill="#5b6270"/><rect x="7" y="8" width="1.02" height="1.02" fill="#5b6270"/><rect x="8" y="8" width="1.02" height="1.02" fill="#5b6270"/><rect x="9" y="8" width="1.02" height="1.02" fill="#5b6270"/><rect x="2" y="9" width="1.02" height="1.02" fill="#3a3f4d"/><rect x="3" y="9" width="1.02" height="1.02" fill="#3a3f4d"/><rect x="4" y="9" width="1.02" height="1.02" fill="#3a3f4d"/><rect x="5" y="9" width="1.02" height="1.02" fill="#3a3f4d"/><rect x="6" y="9" width="1.02" height="1.02" fill="#3a3f4d"/><rect x="7" y="9" width="1.02" height="1.02" fill="#3a3f4d"/><rect x="8" y="9" width="1.02" height="1.02" fill="#3a3f4d"/><rect x="9" y="9" width="1.02" height="1.02" fill="#3a3f4d"/></g>
<text x="118.0" y="320.0" text-anchor="start" font-family="ui-sans-serif, -apple-system, BlinkMacSystemFont, 'Segoe UI', Helvetica, Arial, sans-serif" font-size="15" font-weight="700" fill="#e9e4d8">The daemon</text>
<text x="72.0" y="354.0" text-anchor="start" font-family="ui-sans-serif, -apple-system, BlinkMacSystemFont, 'Segoe UI', Helvetica, Arial, sans-serif" font-size="13" font-weight="400" fill="#a2a7b5">The only thing that writes the</text>
<text x="72.0" y="372.9" text-anchor="start" font-family="ui-sans-serif, -apple-system, BlinkMacSystemFont, 'Segoe UI', Helvetica, Arial, sans-serif" font-size="13" font-weight="400" fill="#a2a7b5">record.</text>
<rect x="56.0" y="396.0" width="248.0" height="98.0" rx="12" fill="#1e2330" stroke="#3a3f4d" stroke-width="1"/>
<g transform="translate(70.00 410.00) scale(3.0000)" shape-rendering="crispEdges"><rect x="2" y="1" width="1.02" height="1.02" fill="#e8590c"/><rect x="3" y="1" width="1.02" height="1.02" fill="#e8590c"/><rect x="4" y="1" width="1.02" height="1.02" fill="#e8590c"/><rect x="5" y="1" width="1.02" height="1.02" fill="#e8590c"/><rect x="6" y="1" width="1.02" height="1.02" fill="#e8590c"/><rect x="7" y="1" width="1.02" height="1.02" fill="#e8590c"/><rect x="8" y="1" width="1.02" height="1.02" fill="#e8590c"/><rect x="9" y="1" width="1.02" height="1.02" fill="#e8590c"/><rect x="10" y="1" width="1.02" height="1.02" fill="#e8590c"/><rect x="1" y="2" width="1.02" height="1.02" fill="#f4c542"/><rect x="2" y="2" width="1.02" height="1.02" fill="#e8590c"/><rect x="3" y="2" width="1.02" height="1.02" fill="#ff8a3d"/><rect x="4" y="2" width="1.02" height="1.02" fill="#ff8a3d"/><rect x="5" y="2" width="1.02" height="1.02" fill="#ff8a3d"/><rect x="6" y="2" width="1.02" height="1.02" fill="#ff8a3d"/><rect x="7" y="2" width="1.02" height="1.02" fill="#ff8a3d"/><rect x="8" y="2" width="1.02" height="1.02" fill="#ff8a3d"/><rect x="9" y="2" width="1.02" height="1.02" fill="#ff8a3d"/><rect x="10" y="2" width="1.02" height="1.02" fill="#e8590c"/><rect x="1" y="3" width="1.02" height="1.02" fill="#f4c542"/><rect x="2" y="3" width="1.02" height="1.02" fill="#e8590c"/><rect x="3" y="3" width="1.02" height="1.02" fill="#ff8a3d"/><rect x="4" y="3" width="1.02" height="1.02" fill="#f4c542"/><rect x="5" y="3" width="1.02" height="1.02" fill="#f4c542"/><rect x="6" y="3" width="1.02" height="1.02" fill="#f4c542"/><rect x="7" y="3" width="1.02" height="1.02" fill="#f4c542"/><rect x="8" y="3" width="1.02" height="1.02" fill="#f4c542"/><rect x="9" y="3" width="1.02" height="1.02" fill="#ff8a3d"/><rect x="10" y="3" width="1.02" height="1.02" fill="#e8590c"/><rect x="1" y="4" width="1.02" height="1.02" fill="#3a3f4d"/><rect x="2" y="4" width="1.02" height="1.02" fill="#f4c542"/><rect x="3" y="4" width="1.02" height="1.02" fill="#ff8a3d"/><rect x="4" y="4" width="1.02" height="1.02" fill="#ff8a3d"/><rect x="5" y="4" width="1.02" height="1.02" fill="#ff8a3d"/><rect x="6" y="4" width="1.02" height="1.02" fill="#ff8a3d"/><rect x="7" y="4" width="1.02" height="1.02" fill="#ff8a3d"/><rect x="8" y="4" width="1.02" height="1.02" fill="#ff8a3d"/><rect x="9" y="4" width="1.02" height="1.02" fill="#ff8a3d"/><rect x="10" y="4" width="1.02" height="1.02" fill="#e8590c"/><rect x="1" y="5" width="1.02" height="1.02" fill="#f4c542"/><rect x="2" y="5" width="1.02" height="1.02" fill="#e8590c"/><rect x="3" y="5" width="1.02" height="1.02" fill="#ff8a3d"/><rect x="4" y="5" width="1.02" height="1.02" fill="#ff8a3d"/><rect x="5" y="5" width="1.02" height="1.02" fill="#ff8a3d"/><rect x="6" y="5" width="1.02" height="1.02" fill="#ff8a3d"/><rect x="7" y="5" width="1.02" height="1.02" fill="#ff8a3d"/><rect x="8" y="5" width="1.02" height="1.02" fill="#ff8a3d"/><rect x="9" y="5" width="1.02" height="1.02" fill="#ff8a3d"/><rect x="10" y="5" width="1.02" height="1.02" fill="#e8590c"/><rect x="1" y="6" width="1.02" height="1.02" fill="#3a3f4d"/><rect x="2" y="6" width="1.02" height="1.02" fill="#f4c542"/><rect x="3" y="6" width="1.02" height="1.02" fill="#ff8a3d"/><rect x="4" y="6" width="1.02" height="1.02" fill="#ff8a3d"/><rect x="5" y="6" width="1.02" height="1.02" fill="#ff8a3d"/><rect x="6" y="6" width="1.02" height="1.02" fill="#ff8a3d"/><rect x="7" y="6" width="1.02" height="1.02" fill="#ff8a3d"/><rect x="8" y="6" width="1.02" height="1.02" fill="#ff8a3d"/><rect x="9" y="6" width="1.02" height="1.02" fill="#ff8a3d"/><rect x="10" y="6" width="1.02" height="1.02" fill="#e8590c"/><rect x="1" y="7" width="1.02" height="1.02" fill="#f4c542"/><rect x="2" y="7" width="1.02" height="1.02" fill="#e8590c"/><rect x="3" y="7" width="1.02" height="1.02" fill="#ff8a3d"/><rect x="4" y="7" width="1.02" height="1.02" fill="#ff8a3d"/><rect x="5" y="7" width="1.02" height="1.02" fill="#ff8a3d"/><rect x="6" y="7" width="1.02" height="1.02" fill="#ff8a3d"/><rect x="7" y="7" width="1.02" height="1.02" fill="#ff8a3d"/><rect x="8" y="7" width="1.02" height="1.02" fill="#ff8a3d"/><rect x="9" y="7" width="1.02" height="1.02" fill="#ff8a3d"/><rect x="10" y="7" width="1.02" height="1.02" fill="#e8590c"/><rect x="1" y="8" width="1.02" height="1.02" fill="#3a3f4d"/><rect x="2" y="8" width="1.02" height="1.02" fill="#f4c542"/><rect x="3" y="8" width="1.02" height="1.02" fill="#e8590c"/><rect x="4" y="8" width="1.02" height="1.02" fill="#e8590c"/><rect x="5" y="8" width="1.02" height="1.02" fill="#e8590c"/><rect x="6" y="8" width="1.02" height="1.02" fill="#e8590c"/><rect x="7" y="8" width="1.02" height="1.02" fill="#e8590c"/><rect x="8" y="8" width="1.02" height="1.02" fill="#e8590c"/><rect x="9" y="8" width="1.02" height="1.02" fill="#e8590c"/><rect x="10" y="8" width="1.02" height="1.02" fill="#e8590c"/><rect x="1" y="9" width="1.02" height="1.02" fill="#f4c542"/><rect x="2" y="9" width="1.02" height="1.02" fill="#e9e4d8"/><rect x="3" y="9" width="1.02" height="1.02" fill="#e9e4d8"/><rect x="4" y="9" width="1.02" height="1.02" fill="#e9e4d8"/><rect x="5" y="9" width="1.02" height="1.02" fill="#e9e4d8"/><rect x="6" y="9" width="1.02" height="1.02" fill="#e9e4d8"/><rect x="7" y="9" width="1.02" height="1.02" fill="#e9e4d8"/><rect x="8" y="9" width="1.02" height="1.02" fill="#e9e4d8"/><rect x="9" y="9" width="1.02" height="1.02" fill="#e9e4d8"/><rect x="10" y="9" width="1.02" height="1.02" fill="#e9e4d8"/><rect x="2" y="10" width="1.02" height="1.02" fill="#e8590c"/><rect x="3" y="10" width="1.02" height="1.02" fill="#e8590c"/><rect x="4" y="10" width="1.02" height="1.02" fill="#e8590c"/><rect x="5" y="10" width="1.02" height="1.02" fill="#e8590c"/><rect x="6" y="10" width="1.02" height="1.02" fill="#e8590c"/><rect x="7" y="10" width="1.02" height="1.02" fill="#e8590c"/><rect x="8" y="10" width="1.02" height="1.02" fill="#e8590c"/><rect x="9" y="10" width="1.02" height="1.02" fill="#e8590c"/><rect x="10" y="10" width="1.02" height="1.02" fill="#e8590c"/></g>
<text x="118.0" y="432.0" text-anchor="start" font-family="ui-sans-serif, -apple-system, BlinkMacSystemFont, 'Segoe UI', Helvetica, Arial, sans-serif" font-size="15" font-weight="700" fill="#e9e4d8">The Ledger</text>
<text x="72.0" y="466.0" text-anchor="start" font-family="ui-sans-serif, -apple-system, BlinkMacSystemFont, 'Segoe UI', Helvetica, Arial, sans-serif" font-size="13" font-weight="400" fill="#a2a7b5">Chained, and re-checked on</text>
<text x="72.0" y="484.9" text-anchor="start" font-family="ui-sans-serif, -apple-system, BlinkMacSystemFont, 'Segoe UI', Helvetica, Arial, sans-serif" font-size="13" font-weight="400" fill="#a2a7b5">every start.</text>
<rect x="340.0" y="116.0" width="280.0" height="400.0" rx="12" fill="#181c26" stroke="#c0392b" stroke-width="2"/>
<text x="360.0" y="150.0" text-anchor="start" font-family="ui-sans-serif, -apple-system, BlinkMacSystemFont, 'Segoe UI', Helvetica, Arial, sans-serif" font-size="19" font-weight="700" fill="#c0392b">Untrusted</text>
<rect x="356.0" y="172.0" width="248.0" height="98.0" rx="12" fill="#1e2330" stroke="#3a3f4d" stroke-width="1"/>
<g transform="translate(370.00 186.00) scale(3.0000)" shape-rendering="crispEdges"><rect x="3" y="0" width="1.02" height="1.02" fill="#5b6270"/><rect x="4" y="0" width="1.02" height="1.02" fill="#5b6270"/><rect x="5" y="0" width="1.02" height="1.02" fill="#5b6270"/><rect x="6" y="0" width="1.02" height="1.02" fill="#5b6270"/><rect x="2" y="1" width="1.02" height="1.02" fill="#5b6270"/><rect x="3" y="1" width="1.02" height="1.02" fill="#5b6270"/><rect x="4" y="1" width="1.02" height="1.02" fill="#5b6270"/><rect x="5" y="1" width="1.02" height="1.02" fill="#5b6270"/><rect x="6" y="1" width="1.02" height="1.02" fill="#5b6270"/><rect x="7" y="1" width="1.02" height="1.02" fill="#5b6270"/><rect x="4" y="2" width="1.02" height="1.02" fill="#5b6270"/><rect x="5" y="2" width="1.02" height="1.02" fill="#5b6270"/><rect x="6" y="2" width="1.02" height="1.02" fill="#5b6270"/><rect x="7" y="2" width="1.02" height="1.02" fill="#5b6270"/><rect x="3" y="3" width="1.02" height="1.02" fill="#a2a7b5"/><rect x="4" y="3" width="1.02" height="1.02" fill="#a2a7b5"/><rect x="5" y="3" width="1.02" height="1.02" fill="#a2a7b5"/><rect x="6" y="3" width="1.02" height="1.02" fill="#a2a7b5"/><rect x="7" y="3" width="1.02" height="1.02" fill="#a2a7b5"/><rect x="8" y="3" width="1.02" height="1.02" fill="#a2a7b5"/><rect x="2" y="4" width="1.02" height="1.02" fill="#a2a7b5"/><rect x="3" y="4" width="1.02" height="1.02" fill="#a2a7b5"/><rect x="4" y="4" width="1.02" height="1.02" fill="#a2a7b5"/><rect x="5" y="4" width="1.02" height="1.02" fill="#a2a7b5"/><rect x="6" y="4" width="1.02" height="1.02" fill="#a2a7b5"/><rect x="7" y="4" width="1.02" height="1.02" fill="#a2a7b5"/><rect x="8" y="4" width="1.02" height="1.02" fill="#a2a7b5"/><rect x="9" y="4" width="1.02" height="1.02" fill="#a2a7b5"/><rect x="2" y="5" width="1.02" height="1.02" fill="#a2a7b5"/><rect x="3" y="5" width="1.02" height="1.02" fill="#a2a7b5"/><rect x="4" y="5" width="1.02" height="1.02" fill="#e9e4d8"/><rect x="5" y="5" width="1.02" height="1.02" fill="#e9e4d8"/><rect x="6" y="5" width="1.02" height="1.02" fill="#e9e4d8"/><rect x="7" y="5" width="1.02" height="1.02" fill="#e9e4d8"/><rect x="8" y="5" width="1.02" height="1.02" fill="#a2a7b5"/><rect x="9" y="5" width="1.02" height="1.02" fill="#a2a7b5"/><rect x="2" y="6" width="1.02" height="1.02" fill="#a2a7b5"/><rect x="3" y="6" width="1.02" height="1.02" fill="#10131a"/><rect x="4" y="6" width="1.02" height="1.02" fill="#10131a"/><rect x="5" y="6" width="1.02" height="1.02" fill="#10131a"/><rect x="6" y="6" width="1.02" height="1.02" fill="#10131a"/><rect x="7" y="6" width="1.02" height="1.02" fill="#10131a"/><rect x="8" y="6" width="1.02" height="1.02" fill="#10131a"/><rect x="9" y="6" width="1.02" height="1.02" fill="#a2a7b5"/><rect x="2" y="7" width="1.02" height="1.02" fill="#a2a7b5"/><rect x="3" y="7" width="1.02" height="1.02" fill="#10131a"/><rect x="4" y="7" width="1.02" height="1.02" fill="#a2a7b5"/><rect x="5" y="7" width="1.02" height="1.02" fill="#10131a"/><rect x="6" y="7" width="1.02" height="1.02" fill="#10131a"/><rect x="7" y="7" width="1.02" height="1.02" fill="#a2a7b5"/><rect x="8" y="7" width="1.02" height="1.02" fill="#10131a"/><rect x="9" y="7" width="1.02" height="1.02" fill="#a2a7b5"/><rect x="2" y="8" width="1.02" height="1.02" fill="#a2a7b5"/><rect x="3" y="8" width="1.02" height="1.02" fill="#a2a7b5"/><rect x="4" y="8" width="1.02" height="1.02" fill="#a2a7b5"/><rect x="5" y="8" width="1.02" height="1.02" fill="#10131a"/><rect x="6" y="8" width="1.02" height="1.02" fill="#10131a"/><rect x="7" y="8" width="1.02" height="1.02" fill="#a2a7b5"/><rect x="8" y="8" width="1.02" height="1.02" fill="#a2a7b5"/><rect x="9" y="8" width="1.02" height="1.02" fill="#a2a7b5"/><rect x="3" y="9" width="1.02" height="1.02" fill="#a2a7b5"/><rect x="4" y="9" width="1.02" height="1.02" fill="#a2a7b5"/><rect x="5" y="9" width="1.02" height="1.02" fill="#10131a"/><rect x="6" y="9" width="1.02" height="1.02" fill="#10131a"/><rect x="7" y="9" width="1.02" height="1.02" fill="#a2a7b5"/><rect x="8" y="9" width="1.02" height="1.02" fill="#a2a7b5"/><rect x="4" y="10" width="1.02" height="1.02" fill="#a2a7b5"/><rect x="5" y="10" width="1.02" height="1.02" fill="#a2a7b5"/><rect x="6" y="10" width="1.02" height="1.02" fill="#a2a7b5"/><rect x="7" y="10" width="1.02" height="1.02" fill="#a2a7b5"/></g>
<text x="418.0" y="208.0" text-anchor="start" font-family="ui-sans-serif, -apple-system, BlinkMacSystemFont, 'Segoe UI', Helvetica, Arial, sans-serif" font-size="15" font-weight="700" fill="#e9e4d8">Agents under test</text>
<text x="372.0" y="242.0" text-anchor="start" font-family="ui-sans-serif, -apple-system, BlinkMacSystemFont, 'Segoe UI', Helvetica, Arial, sans-serif" font-size="13" font-weight="400" fill="#a2a7b5">And everything they output.</text>
<rect x="356.0" y="284.0" width="248.0" height="98.0" rx="12" fill="#1e2330" stroke="#3a3f4d" stroke-width="1"/>
<g transform="translate(370.00 298.00) scale(3.0000)" shape-rendering="crispEdges"><rect x="3" y="1" width="1.02" height="1.02" fill="#8a6a3a"/><rect x="4" y="1" width="1.02" height="1.02" fill="#8a6a3a"/><rect x="5" y="1" width="1.02" height="1.02" fill="#8a6a3a"/><rect x="6" y="1" width="1.02" height="1.02" fill="#8a6a3a"/><rect x="7" y="1" width="1.02" height="1.02" fill="#8a6a3a"/><rect x="8" y="1" width="1.02" height="1.02" fill="#8a6a3a"/><rect x="2" y="2" width="1.02" height="1.02" fill="#8a6a3a"/><rect x="3" y="2" width="1.02" height="1.02" fill="#c9a86a"/><rect x="4" y="2" width="1.02" height="1.02" fill="#c9a86a"/><rect x="5" y="2" width="1.02" height="1.02" fill="#c9a86a"/><rect x="6" y="2" width="1.02" height="1.02" fill="#c9a86a"/><rect x="7" y="2" width="1.02" height="1.02" fill="#c9a86a"/><rect x="8" y="2" width="1.02" height="1.02" fill="#c9a86a"/><rect x="9" y="2" width="1.02" height="1.02" fill="#8a6a3a"/><rect x="1" y="3" width="1.02" height="1.02" fill="#8a6a3a"/><rect x="2" y="3" width="1.02" height="1.02" fill="#8a6a3a"/><rect x="3" y="3" width="1.02" height="1.02" fill="#8a6a3a"/><rect x="4" y="3" width="1.02" height="1.02" fill="#8a6a3a"/><rect x="5" y="3" width="1.02" height="1.02" fill="#8a6a3a"/><rect x="6" y="3" width="1.02" height="1.02" fill="#8a6a3a"/><rect x="7" y="3" width="1.02" height="1.02" fill="#8a6a3a"/><rect x="8" y="3" width="1.02" height="1.02" fill="#8a6a3a"/><rect x="9" y="3" width="1.02" height="1.02" fill="#8a6a3a"/><rect x="10" y="3" width="1.02" height="1.02" fill="#8a6a3a"/><rect x="1" y="4" width="1.02" height="1.02" fill="#8a6a3a"/><rect x="2" y="4" width="1.02" height="1.02" fill="#c9a86a"/><rect x="3" y="4" width="1.02" height="1.02" fill="#c9a86a"/><rect x="4" y="4" width="1.02" height="1.02" fill="#c9a86a"/><rect x="5" y="4" width="1.02" height="1.02" fill="#a2a7b5"/><rect x="6" y="4" width="1.02" height="1.02" fill="#a2a7b5"/><rect x="7" y="4" width="1.02" height="1.02" fill="#c9a86a"/><rect x="8" y="4" width="1.02" height="1.02" fill="#c9a86a"/><rect x="9" y="4" width="1.02" height="1.02" fill="#c9a86a"/><rect x="10" y="4" width="1.02" height="1.02" fill="#8a6a3a"/><rect x="1" y="5" width="1.02" height="1.02" fill="#8a6a3a"/><rect x="2" y="5" width="1.02" height="1.02" fill="#c9a86a"/><rect x="3" y="5" width="1.02" height="1.02" fill="#c9a86a"/><rect x="4" y="5" width="1.02" height="1.02" fill="#c9a86a"/><rect x="5" y="5" width="1.02" height="1.02" fill="#a2a7b5"/><rect x="6" y="5" width="1.02" height="1.02" fill="#a2a7b5"/><rect x="7" y="5" width="1.02" height="1.02" fill="#c9a86a"/><rect x="8" y="5" width="1.02" height="1.02" fill="#c9a86a"/><rect x="9" y="5" width="1.02" height="1.02" fill="#c9a86a"/><rect x="10" y="5" width="1.02" height="1.02" fill="#8a6a3a"/><rect x="1" y="6" width="1.02" height="1.02" fill="#8a6a3a"/><rect x="2" y="6" width="1.02" height="1.02" fill="#c9a86a"/><rect x="3" y="6" width="1.02" height="1.02" fill="#c9a86a"/><rect x="4" y="6" width="1.02" height="1.02" fill="#c9a86a"/><rect x="5" y="6" width="1.02" height="1.02" fill="#a2a7b5"/><rect x="6" y="6" width="1.02" height="1.02" fill="#a2a7b5"/><rect x="7" y="6" width="1.02" height="1.02" fill="#c9a86a"/><rect x="8" y="6" width="1.02" height="1.02" fill="#c9a86a"/><rect x="9" y="6" width="1.02" height="1.02" fill="#c9a86a"/><rect x="10" y="6" width="1.02" height="1.02" fill="#8a6a3a"/><rect x="1" y="7" width="1.02" height="1.02" fill="#8a6a3a"/><rect x="2" y="7" width="1.02" height="1.02" fill="#c9a86a"/><rect x="3" y="7" width="1.02" height="1.02" fill="#c9a86a"/><rect x="4" y="7" width="1.02" height="1.02" fill="#c9a86a"/><rect x="5" y="7" width="1.02" height="1.02" fill="#c9a86a"/><rect x="6" y="7" width="1.02" height="1.02" fill="#c9a86a"/><rect x="7" y="7" width="1.02" height="1.02" fill="#c9a86a"/><rect x="8" y="7" width="1.02" height="1.02" fill="#c9a86a"/><rect x="9" y="7" width="1.02" height="1.02" fill="#c9a86a"/><rect x="10" y="7" width="1.02" height="1.02" fill="#8a6a3a"/><rect x="1" y="8" width="1.02" height="1.02" fill="#8a6a3a"/><rect x="2" y="8" width="1.02" height="1.02" fill="#c9a86a"/><rect x="3" y="8" width="1.02" height="1.02" fill="#c9a86a"/><rect x="4" y="8" width="1.02" height="1.02" fill="#c9a86a"/><rect x="5" y="8" width="1.02" height="1.02" fill="#c9a86a"/><rect x="6" y="8" width="1.02" height="1.02" fill="#c9a86a"/><rect x="7" y="8" width="1.02" height="1.02" fill="#5b6270"/><rect x="8" y="8" width="1.02" height="1.02" fill="#c9a86a"/><rect x="9" y="8" width="1.02" height="1.02" fill="#c9a86a"/><rect x="10" y="8" width="1.02" height="1.02" fill="#8a6a3a"/><rect x="1" y="9" width="1.02" height="1.02" fill="#8a6a3a"/><rect x="2" y="9" width="1.02" height="1.02" fill="#8a6a3a"/><rect x="3" y="9" width="1.02" height="1.02" fill="#8a6a3a"/><rect x="4" y="9" width="1.02" height="1.02" fill="#8a6a3a"/><rect x="5" y="9" width="1.02" height="1.02" fill="#8a6a3a"/><rect x="6" y="9" width="1.02" height="1.02" fill="#8a6a3a"/><rect x="7" y="9" width="1.02" height="1.02" fill="#8a6a3a"/><rect x="8" y="9" width="1.02" height="1.02" fill="#8a6a3a"/><rect x="9" y="9" width="1.02" height="1.02" fill="#8a6a3a"/><rect x="10" y="9" width="1.02" height="1.02" fill="#8a6a3a"/></g>
<text x="418.0" y="320.0" text-anchor="start" font-family="ui-sans-serif, -apple-system, BlinkMacSystemFont, 'Segoe UI', Helvetica, Arial, sans-serif" font-size="15" font-weight="700" fill="#e9e4d8">Outside input</text>
<text x="372.0" y="354.0" text-anchor="start" font-family="ui-sans-serif, -apple-system, BlinkMacSystemFont, 'Segoe UI', Helvetica, Arial, sans-serif" font-size="13" font-weight="400" fill="#a2a7b5">Repos, tool results, model</text>
<text x="372.0" y="372.9" text-anchor="start" font-family="ui-sans-serif, -apple-system, BlinkMacSystemFont, 'Segoe UI', Helvetica, Arial, sans-serif" font-size="13" font-weight="400" fill="#a2a7b5">text.</text>
<rect x="356.0" y="396.0" width="248.0" height="98.0" rx="12" fill="#1e2330" stroke="#3a3f4d" stroke-width="1"/>
<g transform="translate(370.00 410.00) scale(3.0000)" shape-rendering="crispEdges"><rect x="5" y="0" width="1.02" height="1.02" fill="#e8590c"/><rect x="5" y="1" width="1.02" height="1.02" fill="#e8590c"/><rect x="6" y="1" width="1.02" height="1.02" fill="#e8590c"/><rect x="5" y="2" width="1.02" height="1.02" fill="#e8590c"/><rect x="5" y="3" width="1.02" height="1.02" fill="#5b6270"/><rect x="4" y="4" width="1.02" height="1.02" fill="#5b6270"/><rect x="5" y="4" width="1.02" height="1.02" fill="#5b6270"/><rect x="6" y="4" width="1.02" height="1.02" fill="#5b6270"/><rect x="3" y="5" width="1.02" height="1.02" fill="#5b6270"/><rect x="4" y="5" width="1.02" height="1.02" fill="#5b6270"/><rect x="5" y="5" width="1.02" height="1.02" fill="#5b6270"/><rect x="6" y="5" width="1.02" height="1.02" fill="#5b6270"/><rect x="7" y="5" width="1.02" height="1.02" fill="#5b6270"/><rect x="2" y="6" width="1.02" height="1.02" fill="#5b6270"/><rect x="3" y="6" width="1.02" height="1.02" fill="#5b6270"/><rect x="4" y="6" width="1.02" height="1.02" fill="#5b6270"/><rect x="5" y="6" width="1.02" height="1.02" fill="#ff8a3d"/><rect x="6" y="6" width="1.02" height="1.02" fill="#5b6270"/><rect x="7" y="6" width="1.02" height="1.02" fill="#5b6270"/><rect x="8" y="6" width="1.02" height="1.02" fill="#5b6270"/><rect x="1" y="7" width="1.02" height="1.02" fill="#5b6270"/><rect x="2" y="7" width="1.02" height="1.02" fill="#5b6270"/><rect x="3" y="7" width="1.02" height="1.02" fill="#5b6270"/><rect x="4" y="7" width="1.02" height="1.02" fill="#ff8a3d"/><rect x="5" y="7" width="1.02" height="1.02" fill="#ff8a3d"/><rect x="6" y="7" width="1.02" height="1.02" fill="#ff8a3d"/><rect x="7" y="7" width="1.02" height="1.02" fill="#5b6270"/><rect x="8" y="7" width="1.02" height="1.02" fill="#5b6270"/><rect x="9" y="7" width="1.02" height="1.02" fill="#5b6270"/><rect x="0" y="8" width="1.02" height="1.02" fill="#5b6270"/><rect x="1" y="8" width="1.02" height="1.02" fill="#5b6270"/><rect x="2" y="8" width="1.02" height="1.02" fill="#5b6270"/><rect x="3" y="8" width="1.02" height="1.02" fill="#5b6270"/><rect x="4" y="8" width="1.02" height="1.02" fill="#ff8a3d"/><rect x="5" y="8" width="1.02" height="1.02" fill="#ff8a3d"/><rect x="6" y="8" width="1.02" height="1.02" fill="#ff8a3d"/><rect x="7" y="8" width="1.02" height="1.02" fill="#5b6270"/><rect x="8" y="8" width="1.02" height="1.02" fill="#5b6270"/><rect x="9" y="8" width="1.02" height="1.02" fill="#5b6270"/><rect x="10" y="8" width="1.02" height="1.02" fill="#5b6270"/><rect x="0" y="9" width="1.02" height="1.02" fill="#c9a86a"/><rect x="1" y="9" width="1.02" height="1.02" fill="#c9a86a"/><rect x="2" y="9" width="1.02" height="1.02" fill="#c9a86a"/><rect x="3" y="9" width="1.02" height="1.02" fill="#c9a86a"/><rect x="4" y="9" width="1.02" height="1.02" fill="#c9a86a"/><rect x="5" y="9" width="1.02" height="1.02" fill="#c9a86a"/><rect x="6" y="9" width="1.02" height="1.02" fill="#c9a86a"/><rect x="7" y="9" width="1.02" height="1.02" fill="#c9a86a"/><rect x="8" y="9" width="1.02" height="1.02" fill="#c9a86a"/><rect x="9" y="9" width="1.02" height="1.02" fill="#c9a86a"/><rect x="10" y="9" width="1.02" height="1.02" fill="#c9a86a"/><rect x="11" y="9" width="1.02" height="1.02" fill="#c9a86a"/></g>
<text x="418.0" y="432.0" text-anchor="start" font-family="ui-sans-serif, -apple-system, BlinkMacSystemFont, 'Segoe UI', Helvetica, Arial, sans-serif" font-size="15" font-weight="700" fill="#e9e4d8">Remote workers</text>
<text x="372.0" y="466.0" text-anchor="start" font-family="ui-sans-serif, -apple-system, BlinkMacSystemFont, 'Segoe UI', Helvetica, Arial, sans-serif" font-size="13" font-weight="400" fill="#a2a7b5">Can&#x27;t sign; results are</text>
<text x="372.0" y="484.9" text-anchor="start" font-family="ui-sans-serif, -apple-system, BlinkMacSystemFont, 'Segoe UI', Helvetica, Arial, sans-serif" font-size="13" font-weight="400" fill="#a2a7b5">checked.</text>
<rect x="640.0" y="116.0" width="280.0" height="400.0" rx="12" fill="#181c26" stroke="#5b6270" stroke-width="2"/>
<text x="660.0" y="150.0" text-anchor="start" font-family="ui-sans-serif, -apple-system, BlinkMacSystemFont, 'Segoe UI', Helvetica, Arial, sans-serif" font-size="19" font-weight="700" fill="#e9e4d8">Walled off</text>
<rect x="656.0" y="172.0" width="248.0" height="98.0" rx="12" fill="#1e2330" stroke="#3a3f4d" stroke-width="1"/>
<g transform="translate(670.00 186.00) scale(3.0000)" shape-rendering="crispEdges"><rect x="4" y="0" width="1.02" height="1.02" fill="#5b6270"/><rect x="5" y="0" width="1.02" height="1.02" fill="#5b6270"/><rect x="6" y="0" width="1.02" height="1.02" fill="#5b6270"/><rect x="7" y="0" width="1.02" height="1.02" fill="#5b6270"/><rect x="3" y="1" width="1.02" height="1.02" fill="#5b6270"/><rect x="4" y="1" width="1.02" height="1.02" fill="#5b6270"/><rect x="5" y="1" width="1.02" height="1.02" fill="#5b6270"/><rect x="6" y="1" width="1.02" height="1.02" fill="#5b6270"/><rect x="7" y="1" width="1.02" height="1.02" fill="#5b6270"/><rect x="8" y="1" width="1.02" height="1.02" fill="#5b6270"/><rect x="2" y="2" width="1.02" height="1.02" fill="#5b6270"/><rect x="3" y="2" width="1.02" height="1.02" fill="#5b6270"/><rect x="4" y="2" width="1.02" height="1.02" fill="#5b6270"/><rect x="5" y="2" width="1.02" height="1.02" fill="#10131a"/><rect x="6" y="2" width="1.02" height="1.02" fill="#10131a"/><rect x="7" y="2" width="1.02" height="1.02" fill="#5b6270"/><rect x="8" y="2" width="1.02" height="1.02" fill="#5b6270"/><rect x="9" y="2" width="1.02" height="1.02" fill="#5b6270"/><rect x="2" y="3" width="1.02" height="1.02" fill="#5b6270"/><rect x="3" y="3" width="1.02" height="1.02" fill="#5b6270"/><rect x="4" y="3" width="1.02" height="1.02" fill="#10131a"/><rect x="5" y="3" width="1.02" height="1.02" fill="#10131a"/><rect x="6" y="3" width="1.02" height="1.02" fill="#10131a"/><rect x="7" y="3" width="1.02" height="1.02" fill="#10131a"/><rect x="8" y="3" width="1.02" height="1.02" fill="#5b6270"/><rect x="9" y="3" width="1.02" height="1.02" fill="#5b6270"/><rect x="2" y="4" width="1.02" height="1.02" fill="#5b6270"/><rect x="3" y="4" width="1.02" height="1.02" fill="#5b6270"/><rect x="4" y="4" width="1.02" height="1.02" fill="#10131a"/><rect x="5" y="4" width="1.02" height="1.02" fill="#f4c542"/><rect x="6" y="4" width="1.02" height="1.02" fill="#10131a"/><rect x="7" y="4" width="1.02" height="1.02" fill="#f4c542"/><rect x="8" y="4" width="1.02" height="1.02" fill="#5b6270"/><rect x="9" y="4" width="1.02" height="1.02" fill="#5b6270"/><rect x="2" y="5" width="1.02" height="1.02" fill="#5b6270"/><rect x="3" y="5" width="1.02" height="1.02" fill="#5b6270"/><rect x="4" y="5" width="1.02" height="1.02" fill="#5b6270"/><rect x="5" y="5" width="1.02" height="1.02" fill="#10131a"/><rect x="6" y="5" width="1.02" height="1.02" fill="#10131a"/><rect x="7" y="5" width="1.02" height="1.02" fill="#5b6270"/><rect x="8" y="5" width="1.02" height="1.02" fill="#5b6270"/><rect x="9" y="5" width="1.02" height="1.02" fill="#5b6270"/><rect x="1" y="6" width="1.02" height="1.02" fill="#5b6270"/><rect x="2" y="6" width="1.02" height="1.02" fill="#5b6270"/><rect x="3" y="6" width="1.02" height="1.02" fill="#5b6270"/><rect x="4" y="6" width="1.02" height="1.02" fill="#5b6270"/><rect x="5" y="6" width="1.02" height="1.02" fill="#5b6270"/><rect x="6" y="6" width="1.02" height="1.02" fill="#5b6270"/><rect x="7" y="6" width="1.02" height="1.02" fill="#5b6270"/><rect x="8" y="6" width="1.02" height="1.02" fill="#5b6270"/><rect x="9" y="6" width="1.02" height="1.02" fill="#5b6270"/><rect x="10" y="6" width="1.02" height="1.02" fill="#5b6270"/><rect x="1" y="7" width="1.02" height="1.02" fill="#5b6270"/><rect x="2" y="7" width="1.02" height="1.02" fill="#f4c542"/><rect x="3" y="7" width="1.02" height="1.02" fill="#f4c542"/><rect x="4" y="7" width="1.02" height="1.02" fill="#f4c542"/><rect x="5" y="7" width="1.02" height="1.02" fill="#f4c542"/><rect x="6" y="7" width="1.02" height="1.02" fill="#f4c542"/><rect x="7" y="7" width="1.02" height="1.02" fill="#f4c542"/><rect x="8" y="7" width="1.02" height="1.02" fill="#f4c542"/><rect x="9" y="7" width="1.02" height="1.02" fill="#f4c542"/><rect x="10" y="7" width="1.02" height="1.02" fill="#5b6270"/><rect x="1" y="8" width="1.02" height="1.02" fill="#5b6270"/><rect x="2" y="8" width="1.02" height="1.02" fill="#f4c542"/><rect x="3" y="8" width="1.02" height="1.02" fill="#f4c542"/><rect x="4" y="8" width="1.02" height="1.02" fill="#f4c542"/><rect x="5" y="8" width="1.02" height="1.02" fill="#e8590c"/><rect x="6" y="8" width="1.02" height="1.02" fill="#f4c542"/><rect x="7" y="8" width="1.02" height="1.02" fill="#f4c542"/><rect x="8" y="8" width="1.02" height="1.02" fill="#f4c542"/><rect x="9" y="8" width="1.02" height="1.02" fill="#5b6270"/><rect x="1" y="9" width="1.02" height="1.02" fill="#5b6270"/><rect x="2" y="9" width="1.02" height="1.02" fill="#f4c542"/><rect x="3" y="9" width="1.02" height="1.02" fill="#f4c542"/><rect x="4" y="9" width="1.02" height="1.02" fill="#f4c542"/><rect x="5" y="9" width="1.02" height="1.02" fill="#f4c542"/><rect x="6" y="9" width="1.02" height="1.02" fill="#f4c542"/><rect x="7" y="9" width="1.02" height="1.02" fill="#f4c542"/><rect x="8" y="9" width="1.02" height="1.02" fill="#f4c542"/><rect x="9" y="9" width="1.02" height="1.02" fill="#f4c542"/><rect x="10" y="9" width="1.02" height="1.02" fill="#5b6270"/><rect x="1" y="10" width="1.02" height="1.02" fill="#5b6270"/><rect x="2" y="10" width="1.02" height="1.02" fill="#5b6270"/><rect x="3" y="10" width="1.02" height="1.02" fill="#5b6270"/><rect x="4" y="10" width="1.02" height="1.02" fill="#5b6270"/><rect x="5" y="10" width="1.02" height="1.02" fill="#5b6270"/><rect x="6" y="10" width="1.02" height="1.02" fill="#5b6270"/><rect x="7" y="10" width="1.02" height="1.02" fill="#5b6270"/><rect x="8" y="10" width="1.02" height="1.02" fill="#5b6270"/><rect x="9" y="10" width="1.02" height="1.02" fill="#5b6270"/><rect x="10" y="10" width="1.02" height="1.02" fill="#5b6270"/></g>
<text x="718.0" y="208.0" text-anchor="start" font-family="ui-sans-serif, -apple-system, BlinkMacSystemFont, 'Segoe UI', Helvetica, Arial, sans-serif" font-size="15" font-weight="700" fill="#e9e4d8">The judge</text>
<text x="672.0" y="242.0" text-anchor="start" font-family="ui-sans-serif, -apple-system, BlinkMacSystemFont, 'Segoe UI', Helvetica, Arial, sans-serif" font-size="13" font-weight="400" fill="#a2a7b5">Agents can never read it.</text>
<rect x="656.0" y="284.0" width="248.0" height="98.0" rx="12" fill="#1e2330" stroke="#3a3f4d" stroke-width="1"/>
<g transform="translate(670.00 298.00) scale(3.0000)" shape-rendering="crispEdges"><rect x="0" y="2" width="1.02" height="1.02" fill="#e9e4d8"/><rect x="1" y="2" width="1.02" height="1.02" fill="#e9e4d8"/><rect x="2" y="2" width="1.02" height="1.02" fill="#e9e4d8"/><rect x="3" y="2" width="1.02" height="1.02" fill="#e9e4d8"/><rect x="4" y="2" width="1.02" height="1.02" fill="#e9e4d8"/><rect x="5" y="2" width="1.02" height="1.02" fill="#e9e4d8"/><rect x="6" y="2" width="1.02" height="1.02" fill="#e9e4d8"/><rect x="7" y="2" width="1.02" height="1.02" fill="#e9e4d8"/><rect x="8" y="2" width="1.02" height="1.02" fill="#e9e4d8"/><rect x="9" y="2" width="1.02" height="1.02" fill="#e9e4d8"/><rect x="10" y="2" width="1.02" height="1.02" fill="#e9e4d8"/><rect x="11" y="2" width="1.02" height="1.02" fill="#e9e4d8"/><rect x="0" y="3" width="1.02" height="1.02" fill="#e9e4d8"/><rect x="1" y="3" width="1.02" height="1.02" fill="#a2a7b5"/><rect x="2" y="3" width="1.02" height="1.02" fill="#e9e4d8"/><rect x="3" y="3" width="1.02" height="1.02" fill="#e9e4d8"/><rect x="4" y="3" width="1.02" height="1.02" fill="#e9e4d8"/><rect x="5" y="3" width="1.02" height="1.02" fill="#e9e4d8"/><rect x="6" y="3" width="1.02" height="1.02" fill="#e9e4d8"/><rect x="7" y="3" width="1.02" height="1.02" fill="#e9e4d8"/><rect x="8" y="3" width="1.02" height="1.02" fill="#e9e4d8"/><rect x="9" y="3" width="1.02" height="1.02" fill="#e9e4d8"/><rect x="10" y="3" width="1.02" height="1.02" fill="#a2a7b5"/><rect x="11" y="3" width="1.02" height="1.02" fill="#e9e4d8"/><rect x="0" y="4" width="1.02" height="1.02" fill="#e9e4d8"/><rect x="1" y="4" width="1.02" height="1.02" fill="#e9e4d8"/><rect x="2" y="4" width="1.02" height="1.02" fill="#a2a7b5"/><rect x="3" y="4" width="1.02" height="1.02" fill="#e9e4d8"/><rect x="4" y="4" width="1.02" height="1.02" fill="#e9e4d8"/><rect x="5" y="4" width="1.02" height="1.02" fill="#e9e4d8"/><rect x="6" y="4" width="1.02" height="1.02" fill="#e9e4d8"/><rect x="7" y="4" width="1.02" height="1.02" fill="#e9e4d8"/><rect x="8" y="4" width="1.02" height="1.02" fill="#e9e4d8"/><rect x="9" y="4" width="1.02" height="1.02" fill="#a2a7b5"/><rect x="10" y="4" width="1.02" height="1.02" fill="#e9e4d8"/><rect x="11" y="4" width="1.02" height="1.02" fill="#e9e4d8"/><rect x="0" y="5" width="1.02" height="1.02" fill="#e9e4d8"/><rect x="1" y="5" width="1.02" height="1.02" fill="#e9e4d8"/><rect x="2" y="5" width="1.02" height="1.02" fill="#e9e4d8"/><rect x="3" y="5" width="1.02" height="1.02" fill="#a2a7b5"/><rect x="4" y="5" width="1.02" height="1.02" fill="#e9e4d8"/><rect x="5" y="5" width="1.02" height="1.02" fill="#e9e4d8"/><rect x="6" y="5" width="1.02" height="1.02" fill="#e9e4d8"/><rect x="7" y="5" width="1.02" height="1.02" fill="#e9e4d8"/><rect x="8" y="5" width="1.02" height="1.02" fill="#a2a7b5"/><rect x="9" y="5" width="1.02" height="1.02" fill="#e9e4d8"/><rect x="10" y="5" width="1.02" height="1.02" fill="#e9e4d8"/><rect x="11" y="5" width="1.02" height="1.02" fill="#e9e4d8"/><rect x="0" y="6" width="1.02" height="1.02" fill="#e9e4d8"/><rect x="1" y="6" width="1.02" height="1.02" fill="#e9e4d8"/><rect x="2" y="6" width="1.02" height="1.02" fill="#e9e4d8"/><rect x="3" y="6" width="1.02" height="1.02" fill="#e9e4d8"/><rect x="4" y="6" width="1.02" height="1.02" fill="#a2a7b5"/><rect x="5" y="6" width="1.02" height="1.02" fill="#e8590c"/><rect x="6" y="6" width="1.02" height="1.02" fill="#e8590c"/><rect x="7" y="6" width="1.02" height="1.02" fill="#a2a7b5"/><rect x="8" y="6" width="1.02" height="1.02" fill="#e9e4d8"/><rect x="9" y="6" width="1.02" height="1.02" fill="#e9e4d8"/><rect x="10" y="6" width="1.02" height="1.02" fill="#e9e4d8"/><rect x="11" y="6" width="1.02" height="1.02" fill="#e9e4d8"/><rect x="0" y="7" width="1.02" height="1.02" fill="#e9e4d8"/><rect x="1" y="7" width="1.02" height="1.02" fill="#e9e4d8"/><rect x="2" y="7" width="1.02" height="1.02" fill="#e9e4d8"/><rect x="3" y="7" width="1.02" height="1.02" fill="#e9e4d8"/><rect x="4" y="7" width="1.02" height="1.02" fill="#e8590c"/><rect x="5" y="7" width="1.02" height="1.02" fill="#ff8a3d"/><rect x="6" y="7" width="1.02" height="1.02" fill="#ff8a3d"/><rect x="7" y="7" width="1.02" height="1.02" fill="#e8590c"/><rect x="8" y="7" width="1.02" height="1.02" fill="#e9e4d8"/><rect x="9" y="7" width="1.02" height="1.02" fill="#e9e4d8"/><rect x="10" y="7" width="1.02" height="1.02" fill="#e9e4d8"/><rect x="11" y="7" width="1.02" height="1.02" fill="#e9e4d8"/><rect x="0" y="8" width="1.02" height="1.02" fill="#e9e4d8"/><rect x="1" y="8" width="1.02" height="1.02" fill="#e9e4d8"/><rect x="2" y="8" width="1.02" height="1.02" fill="#e9e4d8"/><rect x="3" y="8" width="1.02" height="1.02" fill="#e9e4d8"/><rect x="4" y="8" width="1.02" height="1.02" fill="#e9e4d8"/><rect x="5" y="8" width="1.02" height="1.02" fill="#e8590c"/><rect x="6" y="8" width="1.02" height="1.02" fill="#e8590c"/><rect x="7" y="8" width="1.02" height="1.02" fill="#e9e4d8"/><rect x="8" y="8" width="1.02" height="1.02" fill="#e9e4d8"/><rect x="9" y="8" width="1.02" height="1.02" fill="#e9e4d8"/><rect x="10" y="8" width="1.02" height="1.02" fill="#e9e4d8"/><rect x="11" y="8" width="1.02" height="1.02" fill="#e9e4d8"/><rect x="0" y="9" width="1.02" height="1.02" fill="#e9e4d8"/><rect x="1" y="9" width="1.02" height="1.02" fill="#e9e4d8"/><rect x="2" y="9" width="1.02" height="1.02" fill="#e9e4d8"/><rect x="3" y="9" width="1.02" height="1.02" fill="#e9e4d8"/><rect x="4" y="9" width="1.02" height="1.02" fill="#e9e4d8"/><rect x="5" y="9" width="1.02" height="1.02" fill="#e9e4d8"/><rect x="6" y="9" width="1.02" height="1.02" fill="#e9e4d8"/><rect x="7" y="9" width="1.02" height="1.02" fill="#e9e4d8"/><rect x="8" y="9" width="1.02" height="1.02" fill="#e9e4d8"/><rect x="9" y="9" width="1.02" height="1.02" fill="#e9e4d8"/><rect x="10" y="9" width="1.02" height="1.02" fill="#e9e4d8"/><rect x="11" y="9" width="1.02" height="1.02" fill="#e9e4d8"/></g>
<text x="718.0" y="320.0" text-anchor="start" font-family="ui-sans-serif, -apple-system, BlinkMacSystemFont, 'Segoe UI', Helvetica, Arial, sans-serif" font-size="15" font-weight="700" fill="#e9e4d8">Sealed tasks</text>
<text x="672.0" y="354.0" text-anchor="start" font-family="ui-sans-serif, -apple-system, BlinkMacSystemFont, 'Segoe UI', Helvetica, Arial, sans-serif" font-size="13" font-weight="400" fill="#a2a7b5">Only the judge sees these.</text>
<rect x="656.0" y="396.0" width="248.0" height="98.0" rx="12" fill="#1e2330" stroke="#3a3f4d" stroke-width="1"/>
<g transform="translate(670.00 410.00) scale(3.0000)" shape-rendering="crispEdges"><rect x="3" y="0" width="1.02" height="1.02" fill="#ff8a3d"/><rect x="4" y="0" width="1.02" height="1.02" fill="#ff8a3d"/><rect x="5" y="0" width="1.02" height="1.02" fill="#ff8a3d"/><rect x="6" y="0" width="1.02" height="1.02" fill="#ff8a3d"/><rect x="7" y="0" width="1.02" height="1.02" fill="#ff8a3d"/><rect x="8" y="0" width="1.02" height="1.02" fill="#ff8a3d"/><rect x="2" y="1" width="1.02" height="1.02" fill="#ff8a3d"/><rect x="9" y="1" width="1.02" height="1.02" fill="#ff8a3d"/><rect x="1" y="2" width="1.02" height="1.02" fill="#ff8a3d"/><rect x="4" y="2" width="1.02" height="1.02" fill="#ff8a3d"/><rect x="5" y="2" width="1.02" height="1.02" fill="#ff8a3d"/><rect x="6" y="2" width="1.02" height="1.02" fill="#ff8a3d"/><rect x="7" y="2" width="1.02" height="1.02" fill="#ff8a3d"/><rect x="10" y="2" width="1.02" height="1.02" fill="#ff8a3d"/><rect x="1" y="3" width="1.02" height="1.02" fill="#ff8a3d"/><rect x="3" y="3" width="1.02" height="1.02" fill="#ff8a3d"/><rect x="8" y="3" width="1.02" height="1.02" fill="#ff8a3d"/><rect x="10" y="3" width="1.02" height="1.02" fill="#ff8a3d"/><rect x="0" y="4" width="1.02" height="1.02" fill="#ff8a3d"/><rect x="2" y="4" width="1.02" height="1.02" fill="#ff8a3d"/><rect x="5" y="4" width="1.02" height="1.02" fill="#ff8a3d"/><rect x="6" y="4" width="1.02" height="1.02" fill="#ff8a3d"/><rect x="9" y="4" width="1.02" height="1.02" fill="#ff8a3d"/><rect x="11" y="4" width="1.02" height="1.02" fill="#ff8a3d"/><rect x="0" y="5" width="1.02" height="1.02" fill="#ff8a3d"/><rect x="2" y="5" width="1.02" height="1.02" fill="#ff8a3d"/><rect x="4" y="5" width="1.02" height="1.02" fill="#ff8a3d"/><rect x="7" y="5" width="1.02" height="1.02" fill="#ff8a3d"/><rect x="9" y="5" width="1.02" height="1.02" fill="#ff8a3d"/><rect x="11" y="5" width="1.02" height="1.02" fill="#ff8a3d"/><rect x="0" y="6" width="1.02" height="1.02" fill="#ff8a3d"/><rect x="2" y="6" width="1.02" height="1.02" fill="#ff8a3d"/><rect x="4" y="6" width="1.02" height="1.02" fill="#ff8a3d"/><rect x="7" y="6" width="1.02" height="1.02" fill="#ff8a3d"/><rect x="9" y="6" width="1.02" height="1.02" fill="#ff8a3d"/><rect x="11" y="6" width="1.02" height="1.02" fill="#ff8a3d"/><rect x="0" y="7" width="1.02" height="1.02" fill="#ff8a3d"/><rect x="2" y="7" width="1.02" height="1.02" fill="#ff8a3d"/><rect x="4" y="7" width="1.02" height="1.02" fill="#ff8a3d"/><rect x="6" y="7" width="1.02" height="1.02" fill="#ff8a3d"/><rect x="9" y="7" width="1.02" height="1.02" fill="#ff8a3d"/><rect x="2" y="8" width="1.02" height="1.02" fill="#ff8a3d"/><rect x="4" y="8" width="1.02" height="1.02" fill="#ff8a3d"/><rect x="6" y="8" width="1.02" height="1.02" fill="#ff8a3d"/><rect x="8" y="8" width="1.02" height="1.02" fill="#ff8a3d"/><rect x="2" y="9" width="1.02" height="1.02" fill="#ff8a3d"/><rect x="6" y="9" width="1.02" height="1.02" fill="#ff8a3d"/><rect x="8" y="9" width="1.02" height="1.02" fill="#ff8a3d"/><rect x="4" y="10" width="1.02" height="1.02" fill="#ff8a3d"/><rect x="8" y="10" width="1.02" height="1.02" fill="#ff8a3d"/></g>
<text x="718.0" y="432.0" text-anchor="start" font-family="ui-sans-serif, -apple-system, BlinkMacSystemFont, 'Segoe UI', Helvetica, Arial, sans-serif" font-size="15" font-weight="700" fill="#e9e4d8">Stored files</text>
<text x="672.0" y="466.0" text-anchor="start" font-family="ui-sans-serif, -apple-system, BlinkMacSystemFont, 'Segoe UI', Helvetica, Arial, sans-serif" font-size="13" font-weight="400" fill="#a2a7b5">Checked by fingerprint on every</text>
<text x="672.0" y="484.9" text-anchor="start" font-family="ui-sans-serif, -apple-system, BlinkMacSystemFont, 'Segoe UI', Helvetica, Arial, sans-serif" font-size="13" font-weight="400" fill="#a2a7b5">read.</text>
</svg>
